# xmcd
#
# Track frame offsets:
#	150
#	12369
#	26021
#	34916
#	44610
#	58566
#	70690
#	84179
#	96277
#	107686
#	118984
#	133169
#	143327
#	155966
#	166185
#	178832
#	188164
#	198797
#	208365
#	219533
#
# Disc length: 3075 seconds
# Revision: 1
# Processed by: cddbd v1.5.2PL0 Copyright (c) Steve Scherf et al.
# Submitted via: dBpowerAMP V12.0
#
DISCID=240c0114
DTITLE=Various Artist - The Ultimate Country Collection [Cd 8]
DYEAR=2003
DGENRE=Count
TTITLE0=Frankie Laine - High Noon (Do Not Forsake Me)
TTITLE1=Willie Nelson - Home Is Where You're Happy
TTITLE2=Frankie Laine - Rawhide
TTITLE3=Willie Nelson - I Didn't Sleep A Wink
TTITLE4=Frankie Laine - Don't Fence Me In
TTITLE5=Willie Nelson - The Shelter Of Your Arms
TTITLE6=Frankie Laine - Cool Water
TTITLE7=Willie Nelson - I Can't Find The Time
TTITLE8=Frankie Laine - Mule train
TTITLE9=Willie Nelson - Is there Something On Your Mind?
TTITLE10=Frankie Laine - Jezebel
TTITLE11=Willie Nelson - Broken Promises
TTITLE12=Frankie Laine - The Cry Of The Wild Goose
TTITLE13=Willie Nelson - Blame It On the Times
TTITLE14=Frankie Laine - Moonlight Gambler
TTITLE15=Willie Nelson - Building Heartaches
TTITLE16=Frankie Laine - Hummingbird
TTITLE17=Willie Nelson - Let's Pretend
TTITLE18=Frankie Laine - Love Is A Golden Ring
TTITLE19=Willie Nelson - I'm Gonna Lose A Lot Of Teardrops
EXTD=
EXTT0=
EXTT1=
EXTT2=
EXTT3=
EXTT4=
EXTT5=
EXTT6=
EXTT7=
EXTT8=
EXTT9=
EXTT10=
EXTT11=
EXTT12=
EXTT13=
EXTT14=
EXTT15=
EXTT16=
EXTT17=
EXTT18=
EXTT19=
PLAYORDER=
